<svg width="31" height="31" viewBox="0 0 31 31" fill="none" xmlns="http://www.w3.org/2000/svg">
<g clip-path="url(#clip0_6_95)">
<path d="M28.4167 18.0833H18.0833V28.4167H28.4167V18.0833ZM8.39584 2.58334L14.2083 12.9167H2.58334L8.39584 2.58334ZM23.25 12.9167C24.6203 12.9167 25.9345 12.3723 26.9034 11.4034C27.8723 10.4345 28.4167 9.12029 28.4167 7.75C28.4167 6.37972 27.8723 5.06556 26.9034 4.09662C25.9345 3.12768 24.6203 2.58334 23.25 2.58334C21.8797 2.58334 20.5656 3.12768 19.5966 4.09662C18.6277 5.06556 18.0833 6.37972 18.0833 7.75C18.0833 9.12029 18.6277 10.4345 19.5966 11.4034C20.5656 12.3723 21.8797 12.9167 23.25 12.9167Z" fill="black" stroke="black" stroke-width="4" stroke-linejoin="round"/>
<path d="M2.58334 18.0833L12.9167 28.4167M12.9167 18.0833L2.58334 28.4167" stroke="black" stroke-width="4" stroke-linecap="round" stroke-linejoin="round"/>
</g>
<defs>
<clipPath id="clip0_6_95">
<rect width="31" height="31" fill="white"/>
</clipPath>
</defs>
</svg>
