<svg width="26" height="30" viewBox="0 0 26 30" fill="none" xmlns="http://www.w3.org/2000/svg">
<path d="M15.1667 8.03571C15.1667 5.90451 16.0227 3.86059 17.5464 2.35361C19.0702 0.846617 21.1368 0 23.2917 0H23.8333C24.1207 0 24.3962 0.112882 24.5994 0.313814C24.8025 0.514746 24.9167 0.787268 24.9167 1.07143V13.9286C24.9167 14.0979 24.96 14.6443 25.0445 15.4993C25.1247 16.3243 25.2341 17.3668 25.3511 18.4779L25.3652 18.6096C25.6577 21.3932 26 24.6589 26 25.7143C26 26.8509 25.5435 27.941 24.7308 28.7447C23.9181 29.5485 22.8159 30 21.6667 30C20.5174 30 19.4152 29.5485 18.6025 28.7447C17.7899 27.941 17.3333 26.8509 17.3333 25.7143C17.3333 24.8164 17.5793 22.1068 17.8295 19.5664C18.0018 17.8146 18.1805 16.095 18.2964 15H17.875C17.1567 15 16.4678 14.7178 15.9599 14.2155C15.452 13.7131 15.1667 13.0318 15.1667 12.3214V8.03571ZM11.8885 0.828214C11.8304 0.581722 11.6859 0.363541 11.4807 0.212337C11.2754 0.0611326 11.0227 -0.0133308 10.7673 0.00214296C10.1931 0.0342858 9.73917 0.5025 9.73917 1.07786V7.50643C9.74348 7.78917 9.63405 8.06202 9.43494 8.26496C9.23584 8.4679 8.96338 8.58431 8.6775 8.58857C8.39162 8.59283 8.11574 8.4846 7.91054 8.28769C7.70534 8.09078 7.58765 7.82131 7.58334 7.53857V1.07143C7.58334 0.787268 7.4692 0.514746 7.26603 0.313814C7.06287 0.112882 6.78732 0 6.5 0C6.21268 0 5.93713 0.112882 5.73397 0.313814C5.53081 0.514746 5.41667 0.787268 5.41667 1.07143V7.56964C5.39896 7.84571 5.27346 8.10415 5.06666 8.29039C4.85986 8.47664 4.58796 8.57609 4.3084 8.56775C4.02883 8.5594 3.76349 8.44391 3.56843 8.24567C3.37336 8.04744 3.26384 7.78197 3.263 7.50536V1.07893C3.26226 0.815066 3.16378 0.56062 2.98618 0.363714C2.80858 0.166807 2.56418 0.0410926 2.29921 0.0103467C2.03423 -0.0203992 1.76704 0.0459553 1.54819 0.19686C1.32933 0.347765 1.17397 0.572758 1.1115 0.829286C1.08767 0.927857 2.38887e-06 5.50714 2.38887e-06 8.57143C-0.000837795 9.53991 0.219957 10.496 0.645841 11.3681C1.07172 12.2402 1.69165 13.0057 2.45917 13.6071C2.9965 14.0293 3.25 14.4889 3.25 14.8736C3.24983 14.9144 3.2473 14.9552 3.24242 14.9957C3.17742 15.5357 2.90984 17.775 2.6585 20.0882C2.4115 22.3629 2.16667 24.8143 2.16667 25.7143C2.16667 26.8509 2.62321 27.941 3.43587 28.7447C4.24853 29.5485 5.35073 30 6.5 30C7.64927 30 8.75147 29.5485 9.56413 28.7447C10.3768 27.941 10.8333 26.8509 10.8333 25.7143C10.8333 24.8154 10.5885 22.3629 10.3415 20.0882C10.0902 17.775 9.8215 15.5346 9.7565 14.9957C9.75198 14.9552 9.74981 14.9144 9.75 14.8736C9.75 14.4889 10.0035 14.0293 10.5408 13.6071C11.3084 13.0057 11.9283 12.2402 12.3542 11.3681C12.78 10.496 13.0008 9.53991 13 8.57143C13 5.505 11.9091 0.917143 11.8885 0.828214ZM10.7185 0.00535727L10.7402 0.00428566H10.7315L10.7228 0.00535727H10.7185Z" fill="black"/>
</svg>
