<svg width="22" height="25" viewBox="0 0 22 25" fill="none" xmlns="http://www.w3.org/2000/svg">
<path d="M12.8333 6.69643C12.8333 4.92043 13.5577 3.21716 14.847 1.96134C16.1363 0.705515 17.885 0 19.7083 0H20.1667C20.4098 0 20.6429 0.0940686 20.8148 0.261512C20.9868 0.428955 21.0833 0.656057 21.0833 0.892857V11.6071C21.0833 11.7482 21.12 12.2036 21.1915 12.9161C21.2593 13.6036 21.3519 14.4723 21.4509 15.3982L21.4628 15.508C21.7103 17.8277 22 20.5491 22 21.4286C22 22.3758 21.6137 23.2842 20.9261 23.954C20.2384 24.6237 19.3058 25 18.3333 25C17.3609 25 16.4282 24.6237 15.7406 23.954C15.053 23.2842 14.6667 22.3758 14.6667 21.4286C14.6667 20.6804 14.8748 18.4223 15.0865 16.3054C15.2323 14.8455 15.3835 13.4125 15.4816 12.5H15.125C14.5172 12.5 13.9343 12.2648 13.5045 11.8462C13.0748 11.4276 12.8333 10.8599 12.8333 10.2679V6.69643ZM10.0595 0.690179C10.0103 0.484769 9.88806 0.302951 9.7144 0.176947C9.54074 0.0509438 9.32689 -0.011109 9.11075 0.0017858C8.62492 0.0285715 8.24083 0.41875 8.24083 0.898214V6.25536C8.24448 6.49097 8.15188 6.71835 7.98341 6.88747C7.81494 7.05659 7.5844 7.15359 7.3425 7.15714C7.1006 7.16069 6.86716 7.0705 6.69353 6.90641C6.51991 6.74231 6.42031 6.51776 6.41667 6.28214V0.892857C6.41667 0.656057 6.32009 0.428955 6.14818 0.261512C5.97627 0.0940686 5.74312 0 5.5 0C5.25689 0 5.02373 0.0940686 4.85182 0.261512C4.67991 0.428955 4.58333 0.656057 4.58333 0.892857V6.30804C4.56835 6.53809 4.46216 6.75346 4.28717 6.90866C4.11219 7.06386 3.88212 7.14674 3.64557 7.13979C3.40901 7.13283 3.18449 7.03659 3.01944 6.8714C2.85438 6.7062 2.76171 6.48498 2.761 6.25446V0.899107C2.76037 0.679222 2.67704 0.467183 2.52677 0.303095C2.37649 0.139006 2.16969 0.0342438 1.94548 0.00862224C1.72127 -0.0169993 1.49519 0.0382961 1.31 0.16405C1.12482 0.289805 0.993363 0.477299 0.940502 0.691071C0.920335 0.773214 2.02135e-06 4.58929 2.02135e-06 7.14286C-0.000708903 7.94993 0.186117 8.74669 0.546481 9.47344C0.906844 10.2002 1.4314 10.8381 2.08084 11.3393C2.5355 11.6911 2.75 12.0741 2.75 12.3946C2.74986 12.4287 2.74771 12.4626 2.74359 12.4964C2.68859 12.9464 2.46217 14.8125 2.2495 16.7402C2.0405 18.6357 1.83334 20.6786 1.83334 21.4286C1.83334 22.3758 2.21964 23.2842 2.90728 23.954C3.59491 24.6237 4.52754 25 5.5 25C6.47246 25 7.40509 24.6237 8.09273 23.954C8.78036 23.2842 9.16667 22.3758 9.16667 21.4286C9.16667 20.6795 8.9595 18.6357 8.7505 16.7402C8.53783 14.8125 8.3105 12.9455 8.2555 12.4964C8.25168 12.4626 8.24984 12.4286 8.25 12.3946C8.25 12.0741 8.4645 11.6911 8.91917 11.3393C9.5686 10.8381 10.0932 10.2002 10.4535 9.47344C10.8139 8.74669 11.0007 7.94993 11 7.14286C11 4.5875 10.0769 0.764286 10.0595 0.690179ZM9.0695 0.00446439L9.08783 0.00357138H9.0805L9.07317 0.00446439H9.0695Z" fill="#124076"/>
</svg>
