<svg width="22" height="33" viewBox="0 0 22 33" fill="none" xmlns="http://www.w3.org/2000/svg">
<path d="M3.25926 33C2.36296 33 1.59595 32.675 0.958222 32.0249C0.320494 31.3749 0.00108642 30.5925 0 29.6778V22.5351C0 20.4864 0.285185 18.5142 0.855556 16.6183C1.42593 14.7224 2.32222 12.8327 3.54444 10.949C2.51235 10.6998 1.66385 10.1323 0.998963 9.24636C0.334074 8.36044 0.00108642 7.36378 0 6.25639V4.51224C0 3.18336 0.563852 2.06933 1.69156 1.17012C2.81926 0.270914 3.99368 -0.11003 5.21481 0.0272874L19.7185 1.48074C20.1802 1.53611 20.5404 1.72326 20.799 2.04219C21.0575 2.36112 21.1863 2.72767 21.1852 3.14184V8.08359C21.1852 8.49887 21.0429 8.86597 20.7582 9.1849C20.4736 9.50383 20.127 9.69042 19.7185 9.74469L18.2519 9.9108C18.6321 11.2674 19.1346 12.4855 19.7593 13.5652C20.384 14.6449 21.1309 15.4201 22 15.8907L20.3704 18.7976C18.9309 17.9394 17.8173 16.7562 17.0296 15.2479C16.242 13.7396 15.6173 12.0575 15.1556 10.2015L13.363 10.3676C13.5802 11.7518 13.9947 13.1499 14.6064 14.5619C15.218 15.9738 15.8357 17.2473 16.4593 18.3824C16.9481 19.2683 17.3148 20.1957 17.5593 21.1647C17.8037 22.1337 17.9259 23.1165 17.9259 24.1131V29.6778C17.9259 30.5914 17.6071 31.3738 16.9693 32.0249C16.3316 32.6761 15.564 33.0011 14.6667 33H3.25926ZM3.25926 4.92751V6.25639C3.25926 6.75472 3.4358 7.15615 3.78889 7.46068C4.14197 7.76522 4.56296 7.8898 5.05185 7.83443L17.9259 6.58861V4.59529L5.05185 3.34947C4.56296 3.2941 4.14197 3.41869 3.78889 3.72322C3.4358 4.02775 3.25926 4.42919 3.25926 4.92751Z" fill="black"/>
</svg>
