<svg width="29" height="29" viewBox="0 0 29 29" fill="none" xmlns="http://www.w3.org/2000/svg">
<path d="M8.45831 18.125H10.875C10.875 19.43 12.5304 20.5417 14.5 20.5417C16.4696 20.5417 18.125 19.43 18.125 18.125C18.125 16.7958 16.8683 16.3125 14.21 15.6721C11.6483 15.0317 8.45831 14.2342 8.45831 10.875C8.45831 8.71208 10.2346 6.87542 12.6875 6.25917V3.625H16.3125V6.25917C18.7654 6.87542 20.5416 8.71208 20.5416 10.875H18.125C18.125 9.57 16.4696 8.45833 14.5 8.45833C12.5304 8.45833 10.875 9.57 10.875 10.875C10.875 12.2042 12.1316 12.6875 14.79 13.3279C17.3516 13.9683 20.5416 14.7658 20.5416 18.125C20.5416 20.2879 18.7654 22.1246 16.3125 22.7408V25.375H12.6875V22.7408C10.2346 22.1246 8.45831 20.2879 8.45831 18.125Z" fill="#A9A7A7"/>
</svg>
