<svg width="25" height="25" viewBox="0 0 25 25" fill="none" xmlns="http://www.w3.org/2000/svg">
<g clip-path="url(#clip0_11_321)">
<path d="M22.9166 14.5833H14.5833V22.9166H22.9166V14.5833ZM6.77081 2.08331L11.4583 10.4166H2.08331L6.77081 2.08331ZM18.75 10.4166C19.855 10.4166 20.9149 9.97766 21.6963 9.19626C22.4777 8.41486 22.9166 7.35505 22.9166 6.24998C22.9166 5.14491 22.4777 4.0851 21.6963 3.3037C20.9149 2.5223 19.855 2.08331 18.75 2.08331C17.6449 2.08331 16.5851 2.5223 15.8037 3.3037C15.0223 4.0851 14.5833 5.14491 14.5833 6.24998C14.5833 7.35505 15.0223 8.41486 15.8037 9.19626C16.5851 9.97766 17.6449 10.4166 18.75 10.4166Z" fill="#124076" stroke="#124076" stroke-width="4" stroke-linejoin="round"/>
<path d="M2.08331 14.5833L10.4166 22.9166M10.4166 14.5833L2.08331 22.9166" stroke="#124076" stroke-width="4" stroke-linecap="round" stroke-linejoin="round"/>
</g>
<defs>
<clipPath id="clip0_11_321">
<rect width="25" height="25" fill="white"/>
</clipPath>
</defs>
</svg>
