<svg width="24" height="32" viewBox="0 0 24 32" fill="none" xmlns="http://www.w3.org/2000/svg">
<path d="M17.2063 7.19426C18.1603 7.19426 19.0752 6.81528 19.7498 6.14068C20.4244 5.46609 20.8034 4.55115 20.8034 3.59713C20.8034 2.64311 20.4244 1.72817 19.7498 1.05357C19.0752 0.378982 18.1603 0 17.2063 0C16.2523 0 15.3373 0.378982 14.6627 1.05357C13.9881 1.72817 13.6091 2.64311 13.6091 3.59713C13.6091 4.55115 13.9881 5.46609 14.6627 6.14068C15.3373 6.81528 16.2523 7.19426 17.2063 7.19426ZM9.98004 10.6171C8.98324 10.8649 8.30298 11.2374 7.75382 11.6995C6.93047 12.3933 6.26541 13.3941 5.36692 14.9673C5.15651 15.3354 4.80847 15.6049 4.39936 15.7164C3.99026 15.8279 3.55361 15.7724 3.18546 15.562C2.81732 15.3516 2.54784 15.0035 2.43631 14.5944C2.32477 14.1853 2.38032 13.7487 2.59074 13.3805C3.48522 11.8162 4.3893 10.3525 5.69466 9.25421C7.05678 8.10633 8.72424 7.45725 10.9728 7.20705C11.9129 7.10313 12.9473 7.12391 13.9169 7.55637C14.9345 8.01121 15.6779 8.82576 16.1847 9.91449C16.8673 11.3797 17.3749 12.2518 17.781 12.7578C17.9769 13 18.1135 13.1127 18.1911 13.1631C18.2526 13.2031 18.279 13.2063 18.2886 13.2079C18.3582 13.2159 18.5844 13.2079 19.2462 12.9145C19.5348 12.7866 19.8498 12.6331 20.2351 12.4453L20.327 12.4005C20.7982 12.168 21.2736 11.9442 21.753 11.729C22.1401 11.5591 22.5787 11.5494 22.9729 11.702C23.3671 11.8546 23.6848 12.1572 23.8565 12.5434C24.0283 12.9297 24.04 13.3682 23.8893 13.7631C23.7385 14.158 23.4375 14.4772 23.052 14.6507C22.6077 14.85 22.1672 15.0576 21.7307 15.2734L21.6259 15.3246C21.2574 15.5044 20.8865 15.6859 20.5388 15.8394C19.8194 16.1575 18.9001 16.5028 17.9033 16.3821C16.8514 16.2542 16.0408 15.6603 15.3733 14.8633L13.1887 19.0784L16.2103 23.0096C16.3901 23.2446 16.5012 23.5244 16.5324 23.8186L17.1975 30.2103C17.2228 30.4209 17.206 30.6344 17.148 30.8384C17.09 31.0424 16.992 31.2329 16.8597 31.3987C16.7273 31.5644 16.5633 31.7022 16.3772 31.804C16.1911 31.9057 15.9867 31.9695 15.7757 31.9914C15.5647 32.0134 15.3515 31.9931 15.1484 31.9319C14.9454 31.8706 14.7565 31.7695 14.5929 31.6346C14.4293 31.4996 14.2941 31.3334 14.1954 31.1457C14.0966 30.958 14.0362 30.7525 14.0176 30.5412L13.3989 24.5996L11.5636 22.2111L11.5476 22.2407L11.4804 22.1032L8.08955 17.6907C7.92286 17.4738 7.8146 17.2178 7.77514 16.9471C7.73567 16.6764 7.76631 16.4002 7.86413 16.1447L9.98004 10.6171Z" fill="black"/>
<path d="M7.55951 19.9896L6.38285 23.1551L1.74655 22.7874C1.53576 22.7678 1.32318 22.7903 1.12115 22.8536C0.91912 22.9168 0.73166 23.0195 0.56965 23.1558C0.40764 23.2921 0.274306 23.4592 0.177387 23.6474C0.0804676 23.8356 0.0218925 24.0412 0.00506116 24.2522C-0.0117702 24.4632 0.0134771 24.6755 0.0793381 24.8767C0.145199 25.0779 0.250362 25.264 0.388724 25.4242C0.527086 25.5844 0.695892 25.7156 0.885345 25.81C1.0748 25.9045 1.28113 25.9604 1.49235 25.9745L7.33409 26.4381C7.68079 26.4657 8.02702 26.3795 8.32029 26.1925C8.61356 26.0056 8.83787 25.7281 8.9592 25.4021L9.85848 22.9817L7.55951 19.9896Z" fill="black"/>
</svg>
