<svg width="36" height="29" viewBox="0 0 36 29" fill="none" xmlns="http://www.w3.org/2000/svg">
<path d="M0.228729 20.9329C-0.0343362 20.7333 0.0016621 20.4033 0.0016621 20.4033L1.45821 3.07851C1.45821 3.07851 1.48036 2.88719 1.56621 2.79014C1.61882 2.72913 1.68528 2.6404 1.81542 2.58772C3.27474 1.98878 11.2248 -2.32301 15.2317 1.69209C15.8963 2.46294 16.6163 3.59981 16.6163 4.46494V19.1278C16.6163 19.1278 16.6329 19.4384 16.3532 19.6269C16.2514 19.685 16.1364 19.7162 16.0192 19.7177C15.902 19.7191 15.7864 19.6908 15.6831 19.6352C9.51907 16.5463 2.63785 20.0622 0.901621 20.9856C0.796496 21.0438 0.676528 21.0696 0.556801 21.0598C0.437073 21.0499 0.322932 21.0048 0.228729 20.9301M35.1 20.9828C33.3638 20.0595 26.4826 16.5463 20.3186 19.6325C20.2153 19.688 20.0996 19.7164 19.9824 19.7149C19.8652 19.7135 19.7503 19.6822 19.6484 19.6241C19.3688 19.4384 19.3854 19.1278 19.3854 19.1278V4.46494C19.3854 3.59981 20.1053 2.46294 20.7699 1.69209C24.7741 -2.32301 32.6771 1.98878 34.1364 2.58772C34.2638 2.6404 34.3302 2.72913 34.3856 2.79014C34.4687 2.88719 34.4936 3.07851 34.4936 3.07851L35.9972 20.4033C35.9972 20.4033 36.036 20.7333 35.7757 20.9301C35.6812 21.0054 35.5666 21.0508 35.4463 21.0607C35.326 21.0706 35.2055 21.0444 35.1 20.9856M21.7807 28.55C21.9085 28.5131 22.0223 28.4387 22.1074 28.3364C22.1753 28.2495 22.2158 28.1443 22.2237 28.0342C22.3622 25.4333 26.7207 23.0098 35.0945 27.951C35.3077 28.073 35.5542 28.0619 35.7646 27.9094C36.0028 27.7347 36 27.438 36 27.438V25.9047C36 25.9047 36 25.6911 35.9252 25.5747C35.863 25.4736 35.7738 25.392 35.6677 25.339C30.0603 21.6927 22.9686 20.0761 19.3715 24.8953C19.3302 24.9967 19.2599 25.0835 19.1694 25.1449C19.0116 25.2697 18.8205 25.2614 18.8205 25.2614H17.2006C17.2006 25.2614 17.0067 25.2697 16.8517 25.1477C16.7612 25.0863 16.6908 24.9994 16.6495 24.8981C13.0497 20.0761 5.96077 21.615 0.353338 25.2614C0.246898 25.3151 0.157672 25.3978 0.0958117 25.4998C0.0210459 25.6163 0.0210457 25.827 0.0210457 25.827V27.3632C0.0210457 27.3632 0.0182767 27.6599 0.25642 27.8346C0.352038 27.907 0.466895 27.9497 0.586596 27.9571C0.706297 27.9645 0.825516 27.9363 0.929312 27.8762C9.30031 22.9349 13.6616 25.436 13.7973 28.0342C13.806 28.1446 13.8475 28.2499 13.9164 28.3364C14.0015 28.4387 14.1154 28.5131 14.2432 28.55C16.2397 29.0491 19.1389 29.2432 21.7807 28.55Z" fill="black"/>
</svg>
