<svg width="36" height="36" viewBox="0 0 36 36" fill="none" xmlns="http://www.w3.org/2000/svg">
<path d="M33 20.4951H20.5V32.9951C20.5 33.6582 20.2366 34.294 19.7678 34.7629C19.2989 35.2317 18.663 35.4951 18 35.4951C17.337 35.4951 16.7011 35.2317 16.2322 34.7629C15.7634 34.294 15.5 33.6582 15.5 32.9951V20.4951H3C2.33696 20.4951 1.70107 20.2317 1.23223 19.7629C0.763393 19.294 0.5 18.6582 0.5 17.9951C0.5 17.3321 0.763393 16.6962 1.23223 16.2274C1.70107 15.7585 2.33696 15.4951 3 15.4951H15.5V2.99512C15.5 2.33208 15.7634 1.69619 16.2322 1.22735C16.7011 0.758509 17.337 0.495117 18 0.495117C18.663 0.495117 19.2989 0.758509 19.7678 1.22735C20.2366 1.69619 20.5 2.33208 20.5 2.99512V15.4951H33C33.663 15.4951 34.2989 15.7585 34.7678 16.2274C35.2366 16.6962 35.5 17.3321 35.5 17.9951C35.5 18.6582 35.2366 19.294 34.7678 19.7629C34.2989 20.2317 33.663 20.4951 33 20.4951Z" fill="#124076"/>
</svg>
