<svg width="40" height="40" viewBox="0 0 40 40" fill="none" xmlns="http://www.w3.org/2000/svg">
<path d="M22.085 39.8349C23.9925 39.6174 25.835 39.0974 27.11 37.6249C28.3725 36.1724 28.75 34.1799 28.75 31.8749C28.75 30.7074 28.5325 29.0774 28.3575 27.7824L28.32 27.4999L31.875 27.4999C33.3825 27.4999 34.81 27.2874 36.045 26.6674C37.315 26.0324 38.3225 24.9699 38.8875 23.6674C40.02 21.1724 39.9825 17.5499 39.3575 12.8774L39.2575 12.1124C38.995 10.1374 38.77 8.42988 38.475 7.02988C38.1475 5.45488 37.6875 4.00739 36.805 2.84988C34.925 0.382386 31.765 -0.000113403 27.5 -0.00011303C22.88 -0.000112626 19.415 0.832384 16.53 1.63239C16.1183 1.74572 15.7225 1.85655 15.3425 1.96489C13.6975 2.42989 12.3425 2.81489 11.03 3.00239C10.7413 2.12849 10.1843 1.3679 9.43831 0.828841C8.69234 0.289779 7.79536 -0.000294413 6.875 -0.000111227L4.375 -0.000111009C3.21467 -0.000110907 2.10188 0.460823 1.2814 1.2813C0.460933 2.10176 -3.20449e-06 3.21457 -3.10305e-06 4.37489L-1.46387e-06 23.1249C-1.25275e-06 25.5399 1.96 27.4999 4.375 27.4999L6.875 27.4999C7.64158 27.5 8.39473 27.2986 9.05902 26.916C9.7233 26.5334 10.2754 25.983 10.66 25.3199C11.305 25.5824 12.135 25.9899 12.955 26.5899C14.6325 27.8149 16.25 29.8024 16.25 33.1249L16.25 34.3749C16.25 37.3799 18.735 40.2174 22.085 39.8349ZM11.25 6.74988C13.0125 6.52989 14.725 6.03989 16.43 5.55488L17.5325 5.24238C20.2725 4.47989 23.3675 3.74738 27.5 3.74738C31.985 3.74738 33.2 4.30489 33.82 5.11989C34.1875 5.60238 34.51 6.38239 34.805 7.79488C35.0675 9.04988 35.275 10.6049 35.5425 12.6199L35.6425 13.3699C36.2675 18.0749 36.115 20.7024 35.4725 22.1124C35.2632 22.634 34.8701 23.0608 34.3675 23.3124C33.8475 23.5724 33.0675 23.7474 31.875 23.7474L27.5 23.7474C25.785 23.7474 24.2625 25.1899 24.485 27.0874C24.545 27.5707 24.6083 28.059 24.675 28.5524C24.8375 29.7724 25 30.9774 25 31.8724C25 33.8949 24.64 34.7474 24.28 35.1624C23.9375 35.5574 23.275 35.9224 21.66 36.1074C20.8925 36.1974 20 35.5174 20 34.3749L20 33.1249C20 28.3199 17.555 25.3049 15.1675 23.5624C13.9725 22.6916 12.6514 22.0087 11.25 21.5374L11.25 6.74988ZM6.875 23.7499L4.375 23.7499C4.20924 23.7499 4.05027 23.684 3.93306 23.5668C3.81585 23.4496 3.75 23.2906 3.75 23.1249L3.75 4.37489C3.75 4.02989 4.03 3.74989 4.375 3.74989L6.875 3.74989C7.04076 3.74989 7.19973 3.81573 7.31694 3.93294C7.43415 4.05015 7.5 4.20912 7.5 4.37489L7.5 23.1249C7.5 23.2906 7.43415 23.4496 7.31694 23.5668C7.19973 23.684 7.04076 23.7499 6.875 23.7499Z" fill="white"/>
</svg>
