<svg width="25" height="25" viewBox="0 0 25 25" fill="none" xmlns="http://www.w3.org/2000/svg">
<g clip-path="url(#clip0_11_651)">
<path d="M13.8805 24.2162C15.0127 24.0871 16.1064 23.7784 16.8632 22.9044C17.6126 22.0422 17.8367 20.8595 17.8367 19.4914C17.8367 18.7984 17.7076 17.8308 17.6037 17.0622L17.5814 16.8945L19.6916 16.8945C20.5864 16.8945 21.4337 16.7684 22.1668 16.4003C22.9206 16.0234 23.5186 15.3928 23.854 14.6196C24.5262 13.1387 24.504 10.9885 24.133 8.21499L24.0736 7.76091C23.9178 6.58861 23.7842 5.57508 23.6091 4.74408C23.4148 3.80921 23.1417 2.95001 22.6179 2.26296C21.502 0.798319 19.6263 0.571278 17.0947 0.571278C14.3524 0.571278 12.2957 1.06543 10.5832 1.54028C10.3389 1.60755 10.1039 1.67334 9.87835 1.73765C8.90193 2.01366 8.09764 2.24218 7.31858 2.35348C7.14719 1.83475 6.81659 1.38329 6.3738 1.06332C5.93101 0.743351 5.39859 0.57117 4.85229 0.571279L3.36836 0.571279C2.67962 0.571279 2.0191 0.844877 1.53209 1.33189C1.04508 1.81889 0.771482 2.47942 0.771483 3.16815L0.771484 14.2976C0.771484 15.7311 1.93488 16.8945 3.36836 16.8945L4.85229 16.8945C5.30731 16.8945 5.75436 16.775 6.14866 16.5479C6.54296 16.3208 6.87066 15.9941 7.09896 15.6005C7.48181 15.7563 7.97447 15.9982 8.4612 16.3543C9.45692 17.0815 10.417 18.2612 10.417 20.2333L10.417 20.9753C10.417 22.759 11.892 24.4432 13.8805 24.2162ZM7.44916 4.57788C8.49533 4.4473 9.51182 4.15645 10.5239 3.86857L11.1783 3.68308C12.8047 3.23048 14.6418 2.79569 17.0947 2.79569C19.7569 2.79569 20.4781 3.1266 20.8461 3.61036C21.0642 3.89676 21.2556 4.35975 21.4307 5.19817C21.5866 5.9431 21.7097 6.8661 21.8685 8.06215L21.9279 8.50733C22.2988 11.3001 22.2083 12.8597 21.8269 13.6966C21.7027 14.0062 21.4694 14.2596 21.1711 14.4089C20.8624 14.5632 20.3994 14.6671 19.6916 14.6671L17.0947 14.6671C16.0767 14.6671 15.173 15.5233 15.3051 16.6496C15.3407 16.9365 15.3783 17.2264 15.4179 17.5192C15.5143 18.2434 15.6108 18.9586 15.6108 19.4899C15.6108 20.6904 15.3971 21.1964 15.1834 21.4427C14.9801 21.6772 14.5869 21.8938 13.6282 22.0037C13.1727 22.0571 12.6429 21.6534 12.6429 20.9753L12.6429 20.2333C12.6429 17.3812 11.1916 15.5916 9.77448 14.5573C9.06519 14.0404 8.28102 13.6351 7.44916 13.3553L7.44916 4.57788ZM4.85229 14.6686L3.36836 14.6686C3.26997 14.6686 3.17561 14.6295 3.10603 14.5599C3.03646 14.4904 2.99738 14.396 2.99738 14.2976L2.99738 3.16815C2.99738 2.96337 3.16358 2.79717 3.36836 2.79717L4.85229 2.79717C4.95068 2.79717 5.04504 2.83626 5.11461 2.90583C5.18418 2.9754 5.22327 3.06976 5.22327 3.16815L5.22327 14.2976C5.22327 14.396 5.18418 14.4904 5.11461 14.5599C5.04504 14.6295 4.95068 14.6686 4.85229 14.6686Z" fill="#E95949"/>
</g>
<defs>
<clipPath id="clip0_11_651">
<rect width="23.7429" height="23.7429" fill="white" transform="matrix(1 -8.74228e-08 -8.74228e-08 -1 0.771484 24.3142)"/>
</clipPath>
</defs>
</svg>
