<svg width="27" height="27" viewBox="0 0 27 27" fill="none" xmlns="http://www.w3.org/2000/svg">
<path d="M14.5912 0.277211C15.8328 0.41851 17.0322 0.756327 17.8621 1.71293C18.6839 2.65655 18.9296 3.95097 18.9296 5.44841C18.9296 6.20687 18.788 7.2658 18.6741 8.10709L18.6497 8.29062H20.9637C21.945 8.29062 22.8742 8.42867 23.6781 8.83145C24.5047 9.24398 25.1606 9.93423 25.5283 10.7804C26.2655 12.4013 26.2411 14.7546 25.8343 17.7901L25.7692 18.2871C25.5983 19.5701 25.4518 20.6794 25.2598 21.5889C25.0466 22.6121 24.7472 23.5525 24.1728 24.3044C22.949 25.9074 20.8921 26.1559 18.1159 26.1559C15.1087 26.1559 12.8532 25.6151 10.9753 25.0954C10.7074 25.0218 10.4497 24.9498 10.2024 24.8794C9.13159 24.5773 8.24959 24.3272 7.39525 24.2054C7.20731 24.7731 6.84476 25.2672 6.35919 25.6174C5.87362 25.9676 5.28975 26.1561 4.69067 26.1559H3.06336C2.30808 26.1559 1.58374 25.8565 1.04967 25.3235C0.51561 24.7905 0.215576 24.0675 0.215576 23.3137L0.215576 11.1328C0.215576 9.56393 1.49138 8.29062 3.06336 8.29062H4.69067C5.18966 8.29056 5.6799 8.42136 6.11229 8.66992C6.54469 8.91847 6.90406 9.27606 7.15441 9.70685C7.57425 9.53632 8.11452 9.27159 8.64828 8.8818C9.7402 8.08598 10.7931 6.7948 10.7931 4.63635V3.82429C10.7931 1.8721 12.4106 0.0287208 14.5912 0.277211ZM7.53845 21.7708C8.6857 21.9137 9.80041 22.2321 10.9102 22.5471L11.6279 22.7502C13.4114 23.2455 15.426 23.7214 18.1159 23.7214C21.0353 23.7214 21.8262 23.3592 22.2298 22.8297C22.469 22.5163 22.6789 22.0096 22.8709 21.0919C23.0418 20.2766 23.1769 19.2664 23.351 17.9574L23.4161 17.4701C23.8229 14.4136 23.7236 12.7066 23.3054 11.7906C23.1692 11.4518 22.9133 11.1744 22.5862 11.011C22.2477 10.8421 21.74 10.7284 20.9637 10.7284H18.1159C16.9996 10.7284 16.0086 9.79131 16.1534 8.5586C16.1925 8.2446 16.2337 7.92736 16.2771 7.60686C16.3829 6.81429 16.4886 6.03147 16.4886 5.45003C16.4886 4.13612 16.2543 3.58229 16.02 3.31269C15.797 3.05608 15.3658 2.81896 14.3146 2.69877C13.815 2.64031 13.234 3.08207 13.234 3.82429V4.63635C13.234 7.75791 11.6425 9.7166 10.0884 10.8486C9.31062 11.4143 8.45068 11.858 7.53845 12.1641V21.7708ZM4.69067 10.7268H3.06336C2.95546 10.7268 2.85199 10.7696 2.77569 10.8457C2.6994 10.9219 2.65654 11.0251 2.65654 11.1328V23.3137C2.65654 23.5379 2.83879 23.7198 3.06336 23.7198H4.69067C4.79856 23.7198 4.90204 23.677 4.97834 23.6008C5.05463 23.5247 5.09749 23.4214 5.09749 23.3137V11.1328C5.09749 11.0251 5.05463 10.9219 4.97834 10.8457C4.90204 10.7696 4.79856 10.7268 4.69067 10.7268Z" fill="#596E5A"/>
</svg>
