<svg width="33" height="33" viewBox="0 0 33 33" fill="none" xmlns="http://www.w3.org/2000/svg">
<path d="M18.3155 0.0287589C19.8974 0.208783 21.4255 0.639184 22.4828 1.85797C23.5299 3.06019 23.8429 4.70938 23.8429 6.61721C23.8429 7.58355 23.6625 8.93269 23.5174 10.0046L23.4863 10.2384H26.4345C27.6847 10.2384 28.8686 10.4143 29.8928 10.9274C30.946 11.453 31.7816 12.3324 32.2501 13.4105C33.1894 15.4756 33.1582 18.4739 32.6399 22.3414L32.557 22.9745C32.3393 24.6092 32.1527 26.0225 31.9081 27.1813C31.6365 28.4849 31.255 29.683 30.5231 30.6411C28.964 32.6834 26.3433 33 22.8063 33C18.9748 33 16.1012 32.3109 13.7086 31.6488C13.3672 31.555 13.039 31.4632 12.7238 31.3736C11.3596 30.9887 10.2359 30.67 9.14739 30.5148C8.90794 31.2382 8.44603 31.8677 7.82738 32.3139C7.20872 32.7601 6.46484 33.0001 5.70157 33H3.62827C2.66599 33 1.74313 32.6185 1.0627 31.9394C0.382263 31.2603 0 30.3392 0 29.3788L0 13.8595C0 11.8607 1.62547 10.2384 3.62827 10.2384H5.70157C6.33731 10.2383 6.96191 10.405 7.51282 10.7216C8.06372 11.0383 8.52158 11.4939 8.84054 12.0428C9.37545 11.8255 10.0638 11.4882 10.7438 10.9916C12.135 9.97766 13.4764 8.33261 13.4764 5.58259V4.54798C13.4764 2.06075 15.5373 -0.287835 18.3155 0.0287589ZM9.32984 27.4131C10.7915 27.5951 12.2117 28.0007 13.6257 28.4022L14.54 28.6608C16.8124 29.2919 19.3791 29.8982 22.8063 29.8982C26.5258 29.8982 27.5334 29.4368 28.0476 28.7622C28.3523 28.3628 28.6198 27.7172 28.8645 26.5481C29.0821 25.5094 29.2542 24.2223 29.4761 22.5545L29.559 21.9337C30.0773 18.0394 29.9509 15.8646 29.418 14.6976C29.2444 14.2659 28.9184 13.9126 28.5016 13.7044C28.0704 13.4892 27.4235 13.3443 26.4345 13.3443H22.8063C21.384 13.3443 20.1214 12.1504 20.3059 10.5798C20.3556 10.1798 20.4082 9.77556 20.4634 9.36723C20.5982 8.35744 20.733 7.36007 20.733 6.61928C20.733 4.94527 20.4344 4.23966 20.1359 3.89616C19.8518 3.56923 19.3024 3.26712 17.9631 3.11399C17.3265 3.0395 16.5864 3.60233 16.5864 4.54798V5.58259C16.5864 9.55967 14.5587 12.0552 12.5787 13.4974C11.5877 14.2182 10.4921 14.7834 9.32984 15.1735V27.4131ZM5.70157 13.3422H3.62827C3.4908 13.3422 3.35897 13.3967 3.26176 13.4938C3.16456 13.5908 3.10995 13.7223 3.10995 13.8595V29.3788C3.10995 29.6644 3.34216 29.8961 3.62827 29.8961H5.70157C5.83904 29.8961 5.97087 29.8416 6.06808 29.7446C6.16528 29.6476 6.21989 29.516 6.21989 29.3788V13.8595C6.21989 13.7223 6.16528 13.5908 6.06808 13.4938C5.97087 13.3967 5.83904 13.3422 5.70157 13.3422Z" fill="white"/>
</svg>
