<svg width="43" height="43" viewBox="0 0 43 43" fill="none" xmlns="http://www.w3.org/2000/svg">
<path fill-rule="evenodd" clip-rule="evenodd" d="M28.6666 16.1252C28.6666 18.0259 27.9115 19.8488 26.5675 21.1928C25.2235 22.5368 23.4006 23.2918 21.4999 23.2918C19.5992 23.2918 17.7763 22.5368 16.4323 21.1928C15.0883 19.8488 14.3333 18.0259 14.3333 16.1252C14.3333 14.2244 15.0883 12.4016 16.4323 11.0576C17.7763 9.71355 19.5992 8.9585 21.4999 8.9585C23.4006 8.9585 25.2235 9.71355 26.5675 11.0576C27.9115 12.4016 28.6666 14.2244 28.6666 16.1252ZM25.0833 16.1252C25.0833 17.0755 24.7057 17.987 24.0337 18.659C23.3617 19.331 22.4503 19.7085 21.4999 19.7085C20.5496 19.7085 19.6381 19.331 18.9661 18.659C18.2941 17.987 17.9166 17.0755 17.9166 16.1252C17.9166 15.1748 18.2941 14.2634 18.9661 13.5914C19.6381 12.9194 20.5496 12.5418 21.4999 12.5418C22.4503 12.5418 23.3617 12.9194 24.0337 13.5914C24.7057 14.2634 25.0833 15.1748 25.0833 16.1252Z" fill="#124076"/>
<path fill-rule="evenodd" clip-rule="evenodd" d="M21.5 1.79175C10.6156 1.79175 1.79163 10.6157 1.79163 21.5001C1.79163 32.3845 10.6156 41.2084 21.5 41.2084C32.3843 41.2084 41.2083 32.3845 41.2083 21.5001C41.2083 10.6157 32.3843 1.79175 21.5 1.79175ZM5.37496 21.5001C5.37496 25.2447 6.65242 28.6918 8.79346 31.4295C10.2975 29.4553 12.2373 27.8554 14.4616 26.7546C16.686 25.6537 19.1346 25.0818 21.6164 25.0834C24.0663 25.0806 26.4845 25.6372 28.6866 26.7109C30.8886 27.7846 32.8164 29.347 34.3229 31.279C35.8753 29.243 36.9205 26.8665 37.3721 24.3463C37.8237 21.8261 37.6687 19.2346 36.9199 16.7862C36.1711 14.3378 34.8501 12.1029 33.066 10.2664C31.282 8.42992 29.0863 7.04466 26.6606 6.22524C24.235 5.40582 21.649 5.1758 19.1168 5.5542C16.5846 5.9326 14.1788 6.90855 12.0987 8.4013C10.0185 9.89405 8.3237 11.8607 7.15449 14.1385C5.98529 16.4163 5.37528 18.9397 5.37496 21.5001ZM21.5 37.6251C17.7982 37.6311 14.2081 36.3576 11.3376 34.0202C12.4929 32.3658 14.0308 31.0151 15.8205 30.083C17.6102 29.1509 19.5986 28.665 21.6164 28.6667C23.6091 28.665 25.5734 29.1388 27.3461 30.0487C29.1189 30.9586 30.649 32.2784 31.8092 33.8984C28.9165 36.3118 25.2672 37.631 21.5 37.6251Z" fill="#124076"/>
</svg>
