<svg width="33" height="33" viewBox="0 0 33 33" fill="none" xmlns="http://www.w3.org/2000/svg">
<path d="M30.496 32.6743L20.6937 22.872C19.9158 23.4944 19.0211 23.9871 18.0097 24.3502C16.9984 24.7132 15.9222 24.8947 14.7812 24.8947C11.9546 24.8947 9.56265 23.9155 7.6053 21.9572C5.64796 19.9988 4.66876 17.6068 4.66773 14.7812C4.66669 11.9557 5.64588 9.56373 7.6053 7.60534C9.56473 5.64696 11.9567 4.66776 14.7812 4.66776C17.6057 4.66776 19.9982 5.64696 21.9587 7.60534C23.9191 9.56373 24.8978 11.9557 24.8947 14.7812C24.8947 15.9223 24.7132 16.9984 24.3501 18.0098C23.9871 19.0211 23.4944 19.9158 22.872 20.6938L32.6743 30.4961L30.496 32.6743ZM14.7812 21.7829C16.7261 21.7829 18.3795 21.1024 19.7415 19.7415C21.1034 18.3806 21.7839 16.7272 21.7829 14.7812C21.7818 12.8353 21.1014 11.1824 19.7415 9.82253C18.3816 8.46265 16.7282 7.78168 14.7812 7.7796C12.8342 7.77753 11.1813 8.45851 9.82249 9.82253C8.46365 11.1866 7.78268 12.8395 7.77957 14.7812C7.77646 16.723 8.45743 18.3765 9.82249 19.7415C11.1876 21.1066 12.8405 21.787 14.7812 21.7829Z" fill="#A0A0A0"/>
</svg>
