<svg width="40" height="40" viewBox="0 0 40 40" fill="none" xmlns="http://www.w3.org/2000/svg">
<path d="M4.83333 39.5C3.64167 39.5 2.62189 39.0761 1.774 38.2282C0.926111 37.3803 0.501444 36.3598 0.5 35.1667V4.83333C0.5 3.64167 0.924667 2.62189 1.774 1.774C2.62333 0.926111 3.64311 0.501444 4.83333 0.5H35.1667C36.3583 0.5 37.3788 0.924667 38.2282 1.774C39.0775 2.62333 39.5014 3.64311 39.5 4.83333V35.1667C39.5 36.3583 39.0761 37.3788 38.2282 38.2282C37.3803 39.0775 36.3598 39.5014 35.1667 39.5H4.83333ZM7 30.8333H33L24.875 20L18.375 28.6667L13.5 22.1667L7 30.8333Z" fill="#124076"/>
</svg>
